<?xml version="1.0" encoding="UTF-8"?><svg id="Capa_1" xmlns="http://www.w3.org/2000/svg" viewBox="0 0 160 40"><path d="M13.03,29.84L3.81,17.23v12.61H.5V11.18h2.91l9.28,12.64v-12.64h3.31v18.66h-2.96Z" style="fill:#fff;"/><path d="M22.49,23.79c.21,2.05,1.6,3.73,3.84,3.73,1.79,0,2.93-.69,3.79-2.13l2.19,1.47c-1.52,2.24-3.31,3.31-6.16,3.31-4.24,0-6.9-3.01-6.9-7.09s3.01-7.28,6.9-7.28,6.48,2.69,6.48,6.37c0,.51-.05,1.12-.13,1.63h-10ZM26.23,18.37c-1.97,0-3.12,1.33-3.55,3.09h6.64c-.08-1.79-1.39-3.09-3.09-3.09Z" style="fill:#fff;"/><path d="M45.02,29.84l-.16-2.03c-1.09,1.57-2.72,2.35-4.37,2.35s-2.93-.67-3.79-1.76c-1.01-1.33-1.23-3.15-1.23-5.15v-7.14h3.23v6.9c0,1.15.03,2.43.53,3.28.4.69,1.09,1.04,2.08,1.04,1.28,0,2.61-.83,3.41-2.11v-9.12h3.23v13.73h-2.93Z" style="fill:#fff;"/><path d="M55.07,18.05c.83-1.33,1.92-2.27,3.33-2.27.64,0,1.15.08,1.65.24l-.72,3.01c-.4-.21-.8-.29-1.31-.29-1.17,0-2.16.67-2.83,1.84v9.25h-3.25v-13.73h2.96l.16,1.95Z" style="fill:#fff;"/><path d="M74.96,22.96c0,4.03-3.01,7.2-7.12,7.2s-7.12-3.17-7.12-7.2,3.01-7.17,7.12-7.17,7.12,3.17,7.12,7.17ZM67.84,18.61c-2.24,0-3.84,1.95-3.84,4.35s1.6,4.37,3.84,4.37,3.84-1.95,3.84-4.37-1.6-4.35-3.84-4.35Z" style="fill:#fff;"/><path d="M80.88,16.11l.16,2.03c1.09-1.57,2.72-2.35,4.37-2.35s2.93.67,3.79,1.76c1.01,1.33,1.23,3.15,1.23,5.14v7.14h-3.23v-6.9c0-1.15-.03-2.43-.53-3.28-.4-.69-1.09-1.04-2.08-1.04-1.28,0-2.61.83-3.41,2.11v9.12h-3.23v-13.73h2.93Z" style="fill:#fff;"/><path d="M102.55,29.84l-.16-1.28c-.99,1.17-2.32,1.6-3.89,1.6-2.56,0-4.93-1.41-4.93-4.29,0-3.41,3.15-4.48,6.05-4.48.72,0,1.57.08,2.59.29v-.32c0-1.87-.83-2.99-2.93-2.99-1.55,0-3.07.59-4.24,1.2l-.88-2.43c1.63-.8,3.73-1.36,5.71-1.36,3.89,0,5.57,2.19,5.57,5.76v8.29h-2.88ZM102.21,23.76c-.83-.19-1.49-.27-2.11-.27-1.52,0-3.36.48-3.36,2.27,0,1.39,1.09,2,2.35,2s2.19-.56,3.12-1.36v-2.64Z" style="fill:#fff;"/><path d="M121.59,29.84v-8.18h-8.72v8.18h-3.31V11.18h3.31v7.65h8.72v-7.65h3.31v18.66h-3.31Z" style="fill:#199ddb;"/><path d="M138.57,29.84l-.16-2.03c-1.09,1.57-2.72,2.35-4.37,2.35s-2.93-.67-3.79-1.76c-1.01-1.33-1.23-3.15-1.23-5.15v-7.14h3.23v6.9c0,1.15.03,2.43.53,3.28.4.69,1.09,1.04,2.08,1.04,1.28,0,2.61-.83,3.41-2.11v-9.12h3.23v13.73h-2.93Z" style="fill:#199ddb;"/><path d="M148.73,9.84v7.84c1.01-1.31,2.72-1.89,4.19-1.89,3.76,0,6.59,3.2,6.59,7.22,0,3.76-2.72,7.14-6.64,7.14-1.49,0-3.25-.59-4.27-1.92l-.16,1.6h-2.93V9.84h3.23ZM148.73,25.6c.93,1.2,2.24,1.73,3.52,1.73,2.69,0,3.97-2.29,3.97-4.4,0-2.24-1.52-4.32-3.92-4.32-1.31,0-2.8.64-3.57,2.13v4.85Z" style="fill:#199ddb;"/></svg>